# Blender v2.82 (sub 7) OBJ File: 'lampara.blend'
# www.blender.org
mtllib lampara.mtl
o Cylinder
v 0.000000 0.479371 -0.280553
v 0.000000 0.467592 0.280553
v 0.281767 0.387819 -0.280553
v 0.274844 0.378290 0.280553
v 0.455909 0.148134 -0.280553
v 0.444707 0.144494 0.280553
v 0.455909 -0.148134 -0.280553
v 0.444707 -0.144494 0.280553
v 0.281767 -0.387819 -0.280553
v 0.274844 -0.378290 0.280553
v -0.000000 -0.479371 -0.280553
v -0.000000 -0.467592 0.280553
v -0.281767 -0.387819 -0.280553
v -0.274844 -0.378290 0.280553
v -0.455909 -0.148134 -0.280553
v -0.444707 -0.144494 0.280553
v -0.455909 0.148134 -0.280553
v -0.444707 0.144494 0.280553
v -0.281767 0.387819 -0.280553
v -0.274844 0.378290 0.280553
v 0.221698 0.305141 0.365215
v 0.000000 0.377175 0.365215
v 0.358715 0.116553 0.365215
v 0.358715 -0.116553 0.365215
v 0.221698 -0.305141 0.365215
v -0.000000 -0.377175 0.365215
v -0.221698 -0.305141 0.365215
v -0.358715 -0.116553 0.365215
v -0.358715 0.116553 0.365215
v -0.221698 0.305141 0.365215
v 0.000000 0.477193 -0.176818
v 0.280487 0.386057 -0.176818
v 0.453838 0.147461 -0.176818
v 0.453838 -0.147461 -0.176818
v 0.280487 -0.386057 -0.176818
v -0.000000 -0.477193 -0.176818
v -0.280487 -0.386057 -0.176818
v -0.453838 -0.147461 -0.176818
v -0.453838 0.147461 -0.176818
v -0.280487 0.386057 -0.176818
v -0.000000 0.591511 -0.292687
v 0.347681 0.478542 -0.292687
v 0.346102 0.476368 -0.164685
v 0.562560 0.182787 -0.292687
v 0.560005 0.181956 -0.164685
v 0.562560 -0.182787 -0.292687
v 0.560005 -0.181957 -0.164685
v 0.347681 -0.478542 -0.292687
v 0.346102 -0.476368 -0.164685
v -0.000000 -0.591511 -0.292687
v -0.000000 -0.588824 -0.164685
v -0.347681 -0.478542 -0.292687
v -0.346102 -0.476368 -0.164685
v -0.562560 -0.182787 -0.292687
v -0.560005 -0.181957 -0.164685
v -0.562560 0.182787 -0.292687
v -0.560005 0.181957 -0.164685
v -0.347681 0.478542 -0.292687
v -0.346102 0.476368 -0.164685
v -0.000000 0.588824 -0.164685
v 0.181415 -0.443689 -0.173178
v 0.125318 -0.480144 -0.173178
v 0.194538 -0.479814 -0.168325
v 0.125318 -0.524796 -0.168325
v -0.125318 -0.480144 -0.173178
v -0.181415 -0.443689 -0.173178
v -0.125318 -0.524796 -0.168325
v -0.194538 -0.479814 -0.168325
v -0.194538 0.479814 -0.168325
v -0.181415 0.443689 -0.173178
v -0.125318 0.480144 -0.173178
v -0.125318 0.524796 -0.168325
v 0.194538 0.479814 -0.168325
v 0.181415 0.443689 -0.173178
v 0.125318 0.480144 -0.173178
v 0.125318 0.524796 -0.168325
v 0.181415 -0.443689 0.372641
v 0.125318 -0.480144 0.372641
v 0.194538 -0.479814 0.377494
v 0.125318 -0.524796 0.377494
v -0.125318 -0.480144 0.372641
v -0.181415 -0.443689 0.372641
v -0.125318 -0.524796 0.377494
v -0.194538 -0.479814 0.377494
v -0.194538 0.479814 0.377494
v -0.181415 0.443689 0.372641
v -0.125318 0.480144 0.372641
v -0.125318 0.524796 0.377494
v 0.194538 0.479814 0.377494
v 0.181415 0.443689 0.372641
v 0.125318 0.480144 0.372641
v 0.125318 0.524796 0.377494
v -0.194538 0.397754 0.474596
v -0.181415 0.375446 0.445771
v -0.125318 0.401397 0.471373
v -0.125318 0.429776 0.506187
v 0.194538 0.397754 0.474596
v 0.181415 0.375446 0.445771
v 0.125318 0.401397 0.471373
v 0.125318 0.429776 0.506187
v 0.181415 -0.375446 0.445771
v 0.125318 -0.401397 0.471373
v 0.194538 -0.397754 0.474596
v 0.125318 -0.429776 0.506187
v -0.125318 -0.401397 0.471373
v -0.181415 -0.375446 0.445771
v -0.125318 -0.429776 0.506187
v -0.194538 -0.397754 0.474596
v -0.194538 0.279213 0.519782
v -0.181415 0.268749 0.484867
v -0.125318 0.283771 0.518082
v -0.125318 0.297750 0.560767
v 0.194538 0.279213 0.519782
v 0.181415 0.268749 0.484867
v 0.125318 0.283771 0.518082
v 0.125318 0.297750 0.560767
v 0.181415 -0.268749 0.484867
v 0.125318 -0.283771 0.518082
v 0.194538 -0.279213 0.519782
v 0.125318 -0.297750 0.560767
v -0.125318 -0.283771 0.518082
v -0.181415 -0.268749 0.484867
v -0.125318 -0.297750 0.560767
v -0.194538 -0.279213 0.519782
v -0.194538 -0.000000 0.523405
v -0.181415 -0.000000 0.487006
v -0.125318 -0.000000 0.523342
v -0.125318 -0.000000 0.568240
v 0.194538 -0.000000 0.523405
v 0.181415 -0.000000 0.487006
v 0.125318 -0.000000 0.523342
v 0.125318 -0.000000 0.568240
v -0.470066 0.273609 -0.168325
v -0.427600 0.266368 -0.173178
v -0.384505 0.335412 -0.168325
v -0.358259 0.316454 -0.173178
v 0.384505 0.335412 -0.168325
v 0.358259 0.316454 -0.173178
v 0.470066 0.273609 -0.168325
v 0.427600 0.266368 -0.173178
v -0.358259 -0.316454 -0.173178
v -0.427600 -0.266368 -0.173178
v -0.384505 -0.335412 -0.168325
v -0.470066 -0.273609 -0.168325
v 0.427600 -0.266368 -0.173178
v 0.470066 -0.273609 -0.168325
v 0.358259 -0.316454 -0.173178
v 0.384505 -0.335412 -0.168325
v -0.470066 0.273609 0.364673
v -0.427600 0.266368 0.359820
v -0.384505 0.335412 0.364673
v -0.358259 0.316454 0.359820
v 0.384505 0.335412 0.364673
v 0.358259 0.316454 0.359820
v 0.470066 0.273609 0.364673
v 0.427600 0.266368 0.359820
v -0.358259 -0.316454 0.359820
v -0.427600 -0.266368 0.359820
v -0.384505 -0.335412 0.364673
v -0.470066 -0.273609 0.364673
v 0.427600 -0.266368 0.359820
v 0.470066 -0.273609 0.364673
v 0.358259 -0.316454 0.359820
v 0.384505 -0.335412 0.364673
v -0.381594 0.268687 0.454656
v -0.353450 0.266095 0.420002
v -0.318308 0.336229 0.429748
v -0.302162 0.320832 0.399817
v 0.318308 0.336229 0.429748
v 0.302162 0.320832 0.399817
v 0.381594 0.268687 0.454656
v 0.353450 0.266095 0.420002
v -0.302162 -0.320832 0.399817
v -0.353450 -0.266095 0.420002
v -0.318308 -0.336229 0.429748
v -0.381594 -0.268687 0.454656
v 0.353450 -0.266095 0.420002
v 0.381594 -0.268687 0.454656
v 0.302162 -0.320832 0.399817
v 0.318308 -0.336229 0.429748
v -0.236195 0.262618 0.467880
v -0.237237 0.265506 0.423316
v -0.228554 0.337515 0.440254
v -0.231045 0.326204 0.400927
v -0.231045 -0.326204 0.400927
v -0.237237 -0.265506 0.423316
v -0.228554 -0.337515 0.440254
v -0.236195 -0.262618 0.467880
v 0.228554 0.337515 0.440254
v 0.231045 0.326204 0.400927
v 0.236195 0.262618 0.467880
v 0.237237 0.265506 0.423316
v 0.237237 -0.265506 0.423316
v 0.236195 -0.262618 0.467880
v 0.231045 -0.326204 0.400927
v 0.228554 -0.337515 0.440254
vt 0.641029 0.804745
vt 0.534945 0.692105
vt 0.552047 0.670479
vt 0.730418 0.716814
vt 0.547872 0.645818
vt 0.730418 0.608086
vt 0.524331 0.627312
vt 0.641231 0.520181
vt 0.490170 0.622400
vt 0.496845 0.486519
vt 0.458371 0.632510
vt 0.352406 0.519944
vt 0.441326 0.654089
vt 0.262963 0.607873
vt 0.445484 0.678786
vt 0.262960 0.716619
vt 0.469179 0.697159
vt 0.352189 0.804531
vt 0.492300 0.631193
vt 0.467126 0.638464
vt 0.503340 0.702377
vt 0.496469 0.838217
vt 0.206192 0.086592
vt 0.215078 0.089752
vt 0.220081 0.095505
vt 0.221314 0.102679
vt 0.216746 0.109002
vt 0.208351 0.112331
vt 0.199149 0.110653
vt 0.192787 0.103332
vt 0.193264 0.094096
vt 0.197784 0.087017
vt 0.539958 0.669500
vt 0.526062 0.686072
vt 0.501204 0.693733
vt 0.474723 0.689003
vt 0.456259 0.674317
vt 0.453413 0.655007
vt 0.519111 0.635296
vt 0.536944 0.650151
vt 0.180804 0.107388
vt 0.192202 0.120096
vt 0.183624 0.116650
vt 0.182046 0.113992
vt 0.173635 0.108684
vt 0.175324 0.089767
vt 0.181857 0.090984
vt 0.189973 0.093002
vt 0.195823 0.082449
vt 0.224248 0.103362
vt 0.219277 0.110861
vt 0.207179 0.079560
vt 0.208046 0.075483
vt 0.214726 0.079063
vt 0.214228 0.079713
vt 0.192040 0.080253
vt 0.183316 0.085524
vt 0.185093 0.083368
vt 0.234348 0.091367
vt 0.229352 0.092566
vt 0.228205 0.088227
vt 0.228838 0.087742
vt 0.209140 0.115878
vt 0.197070 0.113738
vt 0.188842 0.077547
vt 0.197383 0.077118
vt 0.197596 0.077825
vt 0.236687 0.104995
vt 0.231267 0.104677
vt 0.206265 0.084254
vt 0.189382 0.104727
vt 0.210834 0.123028
vt 0.225036 0.114661
vt 0.222890 0.094598
vt 0.216680 0.088091
vt 0.220886 0.084389
vt 0.213760 0.128050
vt 0.202321 0.127311
vt 0.205503 0.127594
vt 0.229941 0.117180
vt 0.220039 0.122221
vt 0.222227 0.121103
vt 0.231531 0.109374
vt 0.230788 0.111304
vt 0.198758 0.077131
vt 0.198754 0.077113
vt 0.219221 0.121507
vt 0.221352 0.120338
vt 0.221244 0.121472
vt 0.221229 0.121483
vt 0.197352 0.127415
vt 0.187270 0.124754
vt 0.201011 0.127185
vt 0.234742 0.428272
vt 0.232057 0.427782
vt 0.200008 0.077922
vt 0.199789 0.077193
vt 0.221213 0.121466
vt 0.221225 0.121460
vt 0.216340 0.080322
vt 0.224379 0.081609
vt 0.216845 0.079595
vt 0.235943 0.428378
vt 0.233606 0.441199
vt 0.234681 0.442597
vt 0.221230 0.121467
vt 0.221229 0.121467
vt 0.198769 0.077129
vt 0.198773 0.077112
vt 0.198759 0.077122
vt 0.198760 0.077123
vt 0.198761 0.077122
vt 0.229829 0.429326
vt 0.215903 0.079401
vt 0.215891 0.079414
vt 0.215880 0.079411
vt 0.215887 0.079394
vt 0.215893 0.079408
vt 0.215893 0.079407
vt 0.215893 0.079407
vt 0.215893 0.079407
vt 0.198760 0.077123
vt 0.198760 0.077123
vt 0.215893 0.079407
vt 0.198761 0.077123
vt 0.215894 0.079407
vt 0.233937 0.441399
vt 0.235290 0.446629
vt 0.234236 0.446616
vt 0.234667 0.446326
vt 0.221230 0.121468
vt 0.221231 0.121467
vt 0.234515 0.440061
vt 0.198760 0.077123
vt 0.198760 0.077123
vt 0.198760 0.077123
vt 0.198760 0.077123
vt 0.198760 0.077123
vt 0.215893 0.079407
vt 0.215893 0.079407
vt 0.234941 0.446176
vt 0.235992 0.460622
vt 0.235517 0.461778
vt 0.235738 0.461287
vt 0.221230 0.121467
vt 0.221230 0.121467
vt 0.221230 0.121467
vt 0.221230 0.121467
vt 0.251597 0.149427
vt 0.251597 0.152226
vt 0.249194 0.154130
vt 0.249194 0.150676
vt 0.249194 0.147468
vt 0.249194 0.144669
vt 0.251597 0.145918
vt 0.251597 0.149372
vt 0.215893 0.079407
vt 0.215893 0.079407
vt 0.215893 0.079407
vt 0.198760 0.077123
vt 0.215893 0.079407
vt 0.221230 0.121467
vt 0.221230 0.121467
vt 0.221230 0.121467
vt 0.236687 0.464646
vt 0.221230 0.121467
vt 0.182535 0.117246
vt 0.181123 0.114711
vt 0.181198 0.116068
vt 0.181207 0.116075
vt 0.184182 0.082978
vt 0.182552 0.084981
vt 0.182737 0.083641
vt 0.182768 0.083673
vt 0.227702 0.086202
vt 0.226935 0.086609
vt 0.228562 0.086821
vt 0.228587 0.086799
vt 0.182765 0.083678
vt 0.182709 0.083669
vt 0.232338 0.109786
vt 0.231742 0.111620
vt 0.232438 0.110798
vt 0.232391 0.110798
vt 0.232403 0.110811
vt 0.232409 0.110813
vt 0.228576 0.086813
vt 0.228579 0.086811
vt 0.181162 0.116106
vt 0.181182 0.116085
vt 0.181178 0.116088
vt 0.182747 0.083657
vt 0.182746 0.083658
vt 0.228609 0.086819
vt 0.228567 0.086826
vt 0.181133 0.116074
vt 0.232388 0.110805
vt 0.232421 0.110822
vt 0.182749 0.083659
vt 0.182748 0.083660
vt 0.228574 0.086813
vt 0.228579 0.086810
vt 0.228577 0.086812
vt 0.228577 0.086812
vt 0.181178 0.116091
vt 0.181180 0.116087
vt 0.181180 0.116088
vt 0.228577 0.086812
vt 0.232405 0.110810
vt 0.232408 0.110812
vt 0.182752 0.083661
vt 0.181184 0.116087
vt 0.182750 0.083662
vt 0.251653 0.151836
vt 0.251653 0.149427
vt 0.254600 0.150295
vt 0.254600 0.153267
vt 0.251653 0.148509
vt 0.251653 0.146100
vt 0.254600 0.144669
vt 0.254600 0.147641
vt 0.182749 0.083661
vt 0.181181 0.116087
vt 0.181181 0.116086
vt 0.182749 0.083660
vt 0.249138 0.152788
vt 0.249138 0.155197
vt 0.246191 0.156629
vt 0.246191 0.153656
vt 0.241755 0.154220
vt 0.241755 0.156629
vt 0.238808 0.155761
vt 0.238808 0.152788
vt 0.232406 0.110811
vt 0.232406 0.110811
vt 0.232406 0.110811
vt 0.228577 0.086813
vt 0.232406 0.110810
vt 0.238753 0.147993
vt 0.237932 0.205788
vt 0.236743 0.203368
vt 0.236833 0.149502
vt 0.237159 0.148061
vt 0.238617 0.205352
vt 0.238084 0.144669
vt 0.238753 0.210670
vt 0.242961 0.151504
vt 0.249138 0.145141
vt 0.249138 0.152078
vt 0.238808 0.148704
vt 0.247919 0.149378
vt 0.239860 0.144669
vt 0.242544 0.145985
vt 0.241229 0.152733
vn 0.3090 0.9509 0.0200
vn 0.8089 0.5877 0.0200
vn 0.9998 0.0000 0.0200
vn 0.8089 -0.5877 0.0200
vn 0.3090 -0.9509 0.0200
vn -0.3090 -0.9509 0.0200
vn -0.8089 -0.5877 0.0200
vn -0.9998 0.0000 0.0200
vn 0.2168 -0.6672 0.7126
vn -0.8089 0.5877 0.0200
vn -0.3090 0.9509 0.0200
vn 0.0000 0.0000 -1.0000
vn -0.0000 -0.0000 1.0000
vn 0.5676 -0.4124 0.7126
vn 0.2168 0.6672 0.7126
vn 0.7016 -0.0000 0.7126
vn 0.5676 0.4124 0.7126
vn -0.2168 0.6672 0.7126
vn -0.5676 0.4124 0.7126
vn -0.7016 0.0000 0.7126
vn -0.5676 -0.4124 0.7126
vn -0.2168 -0.6672 0.7126
vn 0.0779 0.0655 0.9948
vn 0.1135 -0.0000 0.9935
vn 0.0914 -0.0664 -0.9936
vn -0.0914 0.0664 -0.9936
vn -0.0263 -0.1080 0.9938
vn 0.0779 -0.0655 0.9948
vn -0.0983 -0.0543 0.9937
vn 0.0349 0.1075 -0.9936
vn 0.0282 -0.1158 0.9929
vn -0.1135 -0.0000 0.9935
vn -0.0914 -0.0664 -0.9936
vn 0.0914 0.0664 -0.9936
vn 0.0263 0.1080 0.9938
vn -0.0349 0.1075 -0.9936
vn -0.0389 0.1026 0.9940
vn 0.0349 -0.1075 -0.9936
vn -0.0779 0.0655 0.9948
vn -0.1130 0.0000 -0.9936
vn 0.1130 0.0000 -0.9936
vn -0.0349 -0.1075 -0.9936
vn -0.9399 -0.3414 -0.0000
vn -0.0263 0.1080 0.9938
vn -0.0282 0.1158 0.9929
vn 0.5449 -0.8385 0.0000
vn 0.0389 0.1026 0.9940
vn 0.0282 0.1158 0.9929
vn 0.5449 0.8385 0.0000
vn 0.0263 -0.1080 0.9938
vn 0.0389 -0.1026 0.9940
vn -0.5449 0.8385 0.0000
vn -0.0389 -0.1026 0.9940
vn -0.0282 -0.1158 0.9929
vn 1.0000 0.0000 -0.0000
vn -0.4959 0.6599 -0.5644
vn -0.5007 0.6811 0.5342
vn -0.5449 -0.8385 0.0000
vn 0.9399 -0.3414 -0.0000
vn -1.0000 0.0000 0.0000
vn -0.9399 0.3414 0.0000
vn 0.9399 0.3414 0.0000
vn -0.5270 -0.3036 -0.7938
vn -0.4959 -0.6599 -0.5644
vn 0.9294 -0.2767 -0.2443
vn 0.4959 -0.6599 -0.5644
vn -0.9294 -0.2767 -0.2443
vn 0.5007 0.6811 0.5342
vn -0.5283 -0.3141 0.7889
vn -0.5007 -0.6811 0.5342
vn 0.9294 0.2767 -0.2443
vn 0.5007 -0.6811 0.5342
vn -0.9294 0.2767 -0.2443
vn 0.4959 0.6599 -0.5644
vn -0.9386 -0.0036 -0.3449
vn 0.5279 -0.0114 -0.8492
vn 0.9383 -0.1212 -0.3240
vn 0.5270 -0.3036 -0.7938
vn -0.9383 -0.1212 -0.3240
vn 0.5283 0.3141 0.7889
vn -0.5283 0.3141 0.7889
vn 0.5279 0.0114 -0.8492
vn -0.9386 0.0036 -0.3449
vn 0.9383 0.1212 -0.3240
vn 0.5283 -0.3141 0.7889
vn -0.9383 0.1212 -0.3240
vn 0.5270 0.3036 -0.7938
vn -0.5270 0.3036 -0.7938
vn 0.0000 -1.0000 -0.0000
vn 0.5284 0.0163 0.8488
vn -0.5284 0.0163 0.8488
vn -0.5279 -0.0114 -0.8492
vn 0.9386 -0.0036 -0.3449
vn -0.5279 0.0114 -0.8492
vn -0.5284 -0.0163 0.8488
vn 0.9386 0.0036 -0.3449
vn 0.5284 -0.0163 0.8488
vn 0.5855 0.8106 0.0000
vn 0.1107 -0.0611 0.9920
vn 0.0983 -0.0543 0.9937
vn -0.1107 -0.0611 0.9920
vn -0.0779 -0.0655 0.9948
vn -0.5855 0.8106 0.0000
vn 0.0983 0.0543 0.9937
vn 0.1107 0.0611 0.9920
vn -0.1681 -0.9858 -0.0000
vn -0.0983 0.0543 0.9937
vn -0.1107 0.0611 0.9920
vn 0.0980 0.9926 0.0718
vn -0.3313 0.8413 -0.4272
vn 0.3313 -0.8413 -0.4272
vn -0.5071 0.6844 0.5239
vn 0.1681 -0.9858 -0.0000
vn 0.1681 0.9858 0.0000
vn 0.5855 -0.8106 -0.0000
vn -0.5855 -0.8106 -0.0000
vn -0.1681 0.9858 0.0000
vn -0.0851 0.3818 0.9203
vn 0.0247 -0.9996 -0.0122
vn -0.0851 -0.3818 0.9203
vn 0.0851 0.3818 0.9203
vn 0.0980 -0.9926 0.0718
vn -0.4726 0.6569 -0.5875
vn -0.4726 -0.6569 -0.5875
vn 0.5071 -0.6844 0.5239
vn 0.5071 0.6844 0.5239
vn -0.0980 -0.9926 0.0718
vn -0.3313 -0.8413 -0.4272
vn 0.4726 0.6569 -0.5875
vn 0.3313 0.8413 -0.4272
vn -0.5071 -0.6844 0.5239
vn 0.4726 -0.6569 -0.5875
vn -0.0980 0.9926 0.0718
vn 0.9932 -0.1126 -0.0305
vn 0.9932 0.1126 -0.0305
vn -0.0124 0.9321 -0.3619
vn -0.0247 0.9996 -0.0122
vn 0.0312 0.3595 -0.9326
vn 0.0312 -0.3595 -0.9326
vn -0.0124 -0.9321 -0.3619
vn -0.0247 -0.9996 -0.0122
vn -0.9932 -0.1126 -0.0305
vn -0.9932 0.1126 -0.0305
vn 0.0851 -0.3818 0.9203
vn 0.0247 0.9996 -0.0122
vn -0.0312 -0.3595 -0.9326
vn 0.0124 -0.9321 -0.3619
vn 0.0124 0.9321 -0.3619
vn -0.0312 0.3595 -0.9326
vn 0.0000 -0.3461 -0.9382
vn 0.0000 0.9610 -0.2764
vn 0.0000 0.9979 0.0647
vn 0.0000 0.3461 -0.9382
vn 0.0000 0.9979 -0.0647
vn 0.0000 -0.3461 0.9382
vn 0.0000 -0.9610 -0.2764
g Cylinder_Cylinder_Material.001
usemtl Material.001
s off
f 31/1/1 2/2/1 4/3/1 32/4/1
f 32/4/2 4/3/2 6/5/2 33/6/2
f 33/6/3 6/5/3 8/7/3 34/8/3
f 34/8/4 8/7/4 10/9/4 35/10/4
f 35/10/5 10/9/5 12/11/5 36/12/5
f 36/12/6 12/11/6 14/13/6 37/14/6
f 37/14/7 14/13/7 16/15/7 38/16/7
f 38/16/8 16/15/8 18/17/8 39/18/8
f 12/11/9 10/9/9 25/19/9 26/20/9
f 39/18/10 18/17/10 20/21/10 40/22/10
f 40/22/11 20/21/11 2/2/11 31/1/11
f 1/23/12 3/24/12 5/25/12 7/26/12 9/27/12 11/28/12 13/29/12 15/30/12 17/31/12 19/32/12
f 21/33/13 22/34/13 30/35/13 29/36/13 28/37/13 27/38/13 26/20/13 25/19/13 24/39/13 23/40/13
f 10/9/14 8/7/14 24/39/14 25/19/14
f 4/3/15 2/2/15 22/34/15 21/33/15
f 8/7/16 6/5/16 23/40/16 24/39/16
f 6/5/17 4/3/17 21/33/17 23/40/17
f 2/2/18 20/21/18 30/35/18 22/34/18
f 20/21/19 18/17/19 29/36/19 30/35/19
f 18/17/20 16/15/20 28/37/20 29/36/20
f 16/15/21 14/13/21 27/38/21 28/37/21
f 14/13/22 12/11/22 26/20/22 27/38/22
f 55/41/23 53/42/23 143/43/23 144/44/23
f 38/45/24 39/46/24 57/47/24 55/41/24
f 19/32/25 17/31/25 56/48/25 58/49/25
f 9/27/26 7/26/26 46/50/26 48/51/26
f 60/52/27 31/53/27 75/54/27 76/55/27
f 59/56/28 57/47/28 133/57/28 135/58/28
f 33/59/29 45/60/29 139/61/29 140/62/29
f 13/29/30 11/28/30 50/63/30 52/64/30
f 59/56/31 40/65/31 70/66/31 69/67/31
f 33/59/32 34/68/32 47/69/32 45/60/32
f 58/49/11 59/56/11 60/52/11 41/70/11
f 56/48/10 57/47/10 59/56/10 58/49/10
f 54/71/8 55/41/8 57/47/8 56/48/8
f 52/64/7 53/42/7 55/41/7 54/71/7
f 50/63/6 51/72/6 53/42/6 52/64/6
f 48/51/5 49/73/5 51/72/5 50/63/5
f 46/50/4 47/69/4 49/73/4 48/51/4
f 44/74/3 45/60/3 47/69/3 46/50/3
f 42/75/2 43/76/2 45/60/2 44/74/2
f 41/70/1 60/52/1 43/76/1 42/75/1
f 5/25/33 3/24/33 42/75/33 44/74/33
f 15/30/34 13/29/34 52/64/34 54/71/34
f 51/72/35 36/77/35 65/78/35 67/79/35
f 11/28/36 9/27/36 48/51/36 50/63/36
f 35/80/37 36/77/37 62/81/37 61/82/37
f 1/23/38 19/32/38 58/49/38 41/70/38
f 49/73/39 47/69/39 146/83/39 148/84/39
f 7/26/40 5/25/40 44/74/40 46/50/40
f 17/31/41 15/30/41 54/71/41 56/48/41
f 3/24/42 1/23/42 41/70/42 42/75/42
f 69/67/43 70/66/43 86/85/43 85/86/43
f 36/77/44 51/72/44 64/87/44 62/81/44
f 49/73/45 35/80/45 61/82/45 63/88/45
f 51/72/37 49/73/37 63/88/37 64/87/37
f 64/87/46 63/88/46 79/89/46 80/90/46
f 53/42/47 51/72/47 67/79/47 68/91/47
f 37/92/48 53/42/48 68/91/48 66/93/48
f 36/77/47 37/92/47 66/93/47 65/78/47
f 65/78/49 66/93/49 82/94/49 81/95/49
f 31/53/50 60/52/50 72/96/50 71/97/50
f 60/52/51 59/56/51 69/67/51 72/96/51
f 40/65/51 31/53/51 71/97/51 70/66/51
f 61/82/52 62/81/52 78/98/52 77/99/52
f 43/76/53 60/52/53 76/55/53 73/100/53
f 31/53/53 32/101/53 74/102/53 75/54/53
f 32/101/54 43/76/54 73/100/54 74/102/54
f 83/103/55 81/95/55 105/104/55 107/105/55
f 77/99/56 78/98/56 102/106/56 101/107/56
f 87/108/55 88/109/55 96/110/55 95/111/55
f 88/109/57 85/86/57 93/112/57 96/110/57
f 68/91/58 67/79/58 83/103/58 84/113/58
f 74/102/59 73/100/59 89/114/59 90/115/59
f 62/81/60 64/87/60 80/90/60 78/98/60
f 71/97/55 72/96/55 88/109/55 87/108/55
f 66/93/61 68/91/61 84/113/61 82/94/61
f 76/55/60 75/54/60 91/116/60 92/117/60
f 63/88/62 61/82/62 77/99/62 79/89/62
f 70/66/46 71/97/46 87/108/46 86/85/46
f 67/79/55 65/78/55 81/95/55 83/103/55
f 75/54/58 74/102/58 90/115/58 91/116/58
f 72/96/52 69/67/52 85/86/52 88/109/52
f 73/100/49 76/55/49 92/117/49 89/114/49
f 99/118/63 98/119/63 114/120/63 115/121/63
f 95/111/55 96/110/55 112/122/55 111/123/55
f 91/116/64 90/115/64 98/119/64 99/118/64
f 90/115/65 89/114/65 97/124/65 98/119/65
f 86/85/66 87/108/66 95/111/66 94/125/66
f 85/86/67 86/85/67 94/125/67 93/112/67
f 89/114/68 92/117/68 100/126/68 97/124/68
f 92/117/60 91/116/60 99/118/60 100/126/60
f 108/127/69 107/105/69 123/128/69 124/129/69
f 107/105/55 105/104/55 121/130/55 123/128/55
f 84/113/70 83/103/70 107/105/70 108/127/70
f 79/89/71 77/99/71 101/107/71 103/131/71
f 80/90/72 79/89/72 103/131/72 104/132/72
f 82/94/73 84/113/73 108/127/73 106/133/73
f 81/95/74 82/94/74 106/133/74 105/104/74
f 78/98/60 80/90/60 104/132/60 102/106/60
f 109/134/75 110/135/75 126/136/75 125/137/75
f 110/135/76 111/123/76 127/138/76 126/136/76
f 98/119/77 97/124/77 113/139/77 114/120/77
f 94/125/78 95/111/78 111/123/78 110/135/78
f 93/112/79 94/125/79 110/135/79 109/134/79
f 97/124/80 100/126/80 116/140/80 113/139/80
f 100/126/60 99/118/60 115/121/60 116/140/60
f 96/110/81 93/112/81 109/134/81 112/122/81
f 121/130/82 122/141/82 126/142/82 127/143/82
f 122/141/83 124/129/83 125/144/83 126/142/83
f 103/131/84 101/107/84 117/145/84 119/146/84
f 104/132/85 103/131/85 119/146/85 120/147/85
f 106/133/86 108/127/86 124/129/86 122/141/86
f 105/104/87 106/133/87 122/141/87 121/130/87
f 102/106/60 104/132/60 120/147/60 118/148/60
f 101/107/88 102/106/88 118/148/88 117/145/88
f 126/149/89 127/150/89 128/151/89 125/152/89
f 131/153/89 130/154/89 129/155/89 132/156/89
f 113/139/90 116/140/90 132/157/90 129/158/90
f 116/140/60 115/121/60 131/159/60 132/157/60
f 112/122/91 109/134/91 125/137/91 128/160/91
f 111/123/55 112/122/55 128/160/55 127/138/55
f 115/121/92 114/120/92 130/161/92 131/159/92
f 114/120/93 113/139/93 129/158/93 130/161/93
f 118/148/60 120/147/60 132/162/60 131/163/60
f 117/145/94 118/148/94 131/163/94 130/164/94
f 123/128/55 121/130/55 127/143/55 128/165/55
f 124/129/95 123/128/95 128/165/95 125/144/95
f 119/146/96 117/145/96 130/164/96 129/166/96
f 120/147/97 119/146/97 129/166/97 132/162/97
f 141/167/98 142/168/98 158/169/98 157/170/98
f 40/65/99 59/56/99 135/58/99 136/171/99
f 39/46/28 40/65/28 136/171/28 134/172/28
f 57/47/100 39/46/100 134/172/100 133/57/100
f 136/171/98 135/58/98 151/173/98 152/174/98
f 43/76/101 32/101/101 138/175/101 137/176/101
f 45/60/102 43/76/102 137/176/102 139/61/102
f 32/101/102 33/59/102 140/62/102 138/175/102
f 137/176/103 138/175/103 154/177/103 153/178/103
f 38/45/104 55/41/104 144/44/104 142/168/104
f 37/92/23 38/45/23 142/168/23 141/167/23
f 53/42/105 37/92/105 141/167/105 143/43/105
f 133/57/106 134/172/106 150/179/106 149/180/106
f 47/69/107 34/68/107 145/181/107 146/83/107
f 34/68/39 35/80/39 147/182/39 145/181/39
f 35/80/108 49/73/108 148/84/108 147/182/108
f 162/183/109 161/184/109 177/185/109 178/186/109
f 153/178/110 154/177/110 170/187/110 169/188/110
f 159/189/111 157/170/111 173/190/111 175/191/111
f 151/173/112 149/180/112 165/192/112 167/193/112
f 140/62/113 139/61/113 155/194/113 156/195/113
f 146/83/114 145/181/114 161/184/114 162/183/114
f 134/172/115 136/171/115 152/174/115 150/179/115
f 144/44/116 143/43/116 159/189/116 160/196/116
f 138/175/116 140/62/116 156/195/116 154/177/116
f 145/181/103 147/182/103 163/197/103 161/184/103
f 135/58/103 133/57/103 149/180/103 151/173/103
f 142/168/117 144/44/117 160/196/117 158/169/117
f 139/61/98 137/176/98 153/178/98 155/194/98
f 148/84/115 146/83/115 162/183/115 164/198/115
f 143/43/115 141/167/115 157/170/115 159/189/115
f 147/182/116 148/84/116 164/198/116 163/197/116
f 167/193/118 165/192/118 181/199/118 183/200/118
f 172/201/119 171/202/119 191/203/119 192/204/119
f 176/205/120 175/191/120 187/206/120 188/207/120
f 171/202/121 169/188/121 189/208/121 191/203/121
f 156/195/122 155/194/122 171/202/122 172/201/122
f 161/184/123 163/197/123 179/209/123 177/185/123
f 154/177/124 156/195/124 172/201/124 170/187/124
f 164/198/125 162/183/125 178/186/125 180/210/125
f 155/194/126 153/178/126 169/188/126 171/202/126
f 149/180/127 150/179/127 166/211/127 165/192/127
f 163/197/128 164/198/128 180/210/128 179/209/128
f 157/170/129 158/169/129 174/212/129 173/190/129
f 152/174/130 151/173/130 167/193/130 168/213/130
f 160/196/131 159/189/131 175/191/131 176/205/131
f 150/179/132 152/174/132 168/213/132 166/211/132
f 158/169/133 160/196/133 176/205/133 174/212/133
f 182/214/134 184/215/134 183/216/134 181/217/134
f 185/218/135 186/219/135 188/220/135 187/221/135
f 168/213/136 167/193/136 183/200/136 184/222/136
f 174/212/137 176/205/137 188/207/137 186/223/137
f 173/190/138 174/212/138 186/223/138 185/224/138
f 166/211/139 168/213/139 184/222/139 182/225/139
f 175/191/140 173/190/140 185/224/140 187/206/140
f 165/192/141 166/211/141 182/225/141 181/199/141
f 190/226/142 192/227/142 191/228/142 189/229/142
f 193/230/143 195/231/143 196/232/143 194/233/143
f 180/210/144 178/186/144 194/234/144 196/235/144
f 178/186/145 177/185/145 193/236/145 194/234/145
f 170/187/146 172/201/146 192/204/146 190/237/146
f 179/209/147 180/210/147 196/235/147 195/238/147
f 169/188/148 170/187/148 190/237/148 189/208/148
f 177/185/149 179/209/149 195/238/149 193/236/149
f 191/239/150 181/240/150 183/241/150 189/242/150
f 190/243/151 184/244/151 183/241/151 189/242/151
f 192/245/150 182/246/150 184/244/150 190/243/150
f 192/245/152 182/246/152 181/240/152 191/239/152
f 186/247/153 193/248/153 195/249/153 185/250/153
f 193/248/154 186/247/154 188/251/154 194/252/154
f 194/252/155 188/251/155 187/253/155 196/254/155
f 185/250/156 195/249/156 196/254/156 187/253/156
